<svg xmlns="http://www.w3.org/2000/svg" width="18" height="21" viewBox="0 0 18 21">
  <g id="Group_410" data-name="Group 410" transform="translate(1 1)">
    <path id="Stroke_5736" data-name="Stroke 5736" d="M5.334,0,.777,3.078A1.856,1.856,0,0,0,0,4.621V7.2H16V4.621a1.856,1.856,0,0,0-.777-1.543L10.662,0" transform="translate(0 11.799)" fill="none" stroke="#fff" stroke-linecap="round" stroke-linejoin="round" stroke-miterlimit="10" stroke-width="2"/>
    <path id="Stroke_5740" data-name="Stroke 5740" d="M4.4,12h0A4.613,4.613,0,0,1,0,7.2V4.8A4.613,4.613,0,0,1,4.4,0,4.613,4.613,0,0,1,8.8,4.8V7.2A4.613,4.613,0,0,1,4.4,12Z" transform="translate(3.599)" fill="none" stroke="#fff" stroke-linecap="round" stroke-linejoin="round" stroke-miterlimit="10" stroke-width="2"/>
  </g>
</svg>
