<svg xmlns="http://www.w3.org/2000/svg" width="268" height="87" viewBox="0 0 268 87">
  <g id="Group_1" data-name="Group 1" transform="translate(-436 -360)">
    <path id="Path_1" data-name="Path 1" d="M705.036,360A26.015,26.015,0,1,0,731,386.062,26.015,26.015,0,0,0,705.036,360Zm-.091,38.964a13.008,13.008,0,1,1,13.031-12.984A13.007,13.007,0,0,1,704.945,398.964Z" transform="translate(-182.239 0)" fill="#ef7667"/>
    <path id="Path_2" data-name="Path 2" d="M958.483,360a6.5,6.5,0,0,0-5.811,3.617l-.008,0-13.346,28.68a.363.363,0,0,1-.659,0l-13.111-28.123-.4-.85h0a6.5,6.5,0,0,0-11.788,5.4l.818,1.88,15.9,34.2,1.031,2.176a8.673,8.673,0,0,0,15.8-.08l1-2.1,16.341-35.245A6.5,6.5,0,0,0,958.483,360Z" transform="translate(-357.746 0)" fill="#ef7667"/>
    <path id="Path_3" data-name="Path 3" d="M1413.168,365.873a6.5,6.5,0,0,0-8.113-4.2v-.012l-.116.036a34.612,34.612,0,0,0-10.965,5.9v-1.1a6.5,6.5,0,0,0-13.008,0v27.479q-.014.7,0,1.394v10.149a6.5,6.5,0,0,0,13.008,0v-10.4q-.009-.435,0-.868a21.688,21.688,0,0,1,14.742-20.108c.092-.026.184-.052.276-.082l.036-.013c.072-.024.143-.049.214-.075A6.5,6.5,0,0,0,1413.168,365.873Z" transform="translate(-709.488 0)" fill="#ef7667"/>
    <path id="Path_4" data-name="Path 4" d="M486.131,402.577h0l-6.106-6.058c-.055-.068-.111-.136-.169-.2a6.574,6.574,0,0,0-9.164-.7,12.984,12.984,0,0,1-20.742-14.462l.014-.035c.06-.151.125-.3.192-.449.04-.088.08-.176.122-.264s.075-.156.113-.233c.083-.165.168-.329.259-.493l.011-.02a13.013,13.013,0,0,1,20.558-2.859h0c.124.124.252.239.383.351a12.99,12.99,0,0,1,3.117,5.921h0a6.5,6.5,0,0,0,12.683-2.888l-.087-.45a22.738,22.738,0,0,0-2.417-6.222,25.93,25.93,0,0,0-15.636-12.49l-.288-.08-.233-.064a26,26,0,1,0-10.4,50.844l.19.027.326.042a25.914,25.914,0,0,0,15.305-2.775l2.769,2.745h0a6.5,6.5,0,0,0,9.482-8.885C486.324,402.774,486.228,402.674,486.131,402.577Z" transform="translate(0 0)" fill="#ef7667"/>
    <path id="Path_5" data-name="Path 5" d="M479.411,604.691a6.5,6.5,0,0,0-1.508,2.341c-.017.05-.036.1-.054.15l-.006.017a12.993,12.993,0,0,1-23.278,2.5,13.14,13.14,0,0,1-1.148-2.331c-.02-.063-.041-.125-.063-.187q-.025-.07-.051-.14a6.5,6.5,0,0,0-12.2,4.515l0,.01.015.042a25.994,25.994,0,0,0,48.879.207c.034-.082.066-.166.1-.25.047-.13.092-.261.131-.393a6.507,6.507,0,0,0-10.817-6.484Z" transform="translate(-3.581 -181.862)" fill="#ef7667"/>
    <path id="Path_6" data-name="Path 6" d="M1172.117,378.521l-3,2.333a6.586,6.586,0,0,0-1.523,8.812,6.5,6.5,0,0,0,9.412,1.531l8.845-6.886,2.559-1.992.076-.059a10.838,10.838,0,0,0-.26-17.3q-.143-.1-.287-.2l-.018-.013a26.018,26.018,0,1,0,1.067,41.856l0,0,0,0a6.6,6.6,0,0,0,1.211-9.026,6.5,6.5,0,0,0-9.2-1.236l-.036-.047-.011.008a13.008,13.008,0,1,1-3.771-22.56.432.432,0,0,1,.121.749Z" transform="translate(-533.464 -0.037)" fill="#ef7667"/>
  </g>
</svg>
