<svg xmlns="http://www.w3.org/2000/svg" width="38" height="61" viewBox="0 0 38 61">
  <g id="Group_388" data-name="Group 388" transform="translate(-436 -360)">
    <path id="Path_7" data-name="Path 7" d="M472.608,390.221h0l-4.459-4.3c-.04-.048-.081-.1-.124-.144a4.9,4.9,0,0,0-6.692-.494,9.493,9.493,0,0,1-1.757,1.235,9.648,9.648,0,0,1-12.9-3.657,8.966,8.966,0,0,1-.5-7.843l.01-.025c.044-.107.092-.213.14-.319.029-.063.058-.125.089-.187s.055-.11.083-.166c.06-.117.123-.234.189-.35l.008-.014a9.65,9.65,0,0,1,12.918-3.565,9.481,9.481,0,0,1,2.094,1.536h0c.09.088.184.17.28.249A9.245,9.245,0,0,1,463.343,374a9.063,9.063,0,0,1,.931,2.384h0a4.755,4.755,0,0,0,5.686,3.472,4.611,4.611,0,0,0,3.575-5.521l-.064-.32a15.869,15.869,0,0,0-1.765-4.416,18.848,18.848,0,0,0-11.418-8.866l-.21-.057-.17-.046a19.237,19.237,0,0,0-21.5,8.848,18.169,18.169,0,0,0,7.352,25.093,19.32,19.32,0,0,0,6.559,2.148l.139.019.238.03a19.4,19.4,0,0,0,11.176-1.97l2.022,1.948h0a4.853,4.853,0,0,0,6.495.2,4.519,4.519,0,0,0,.429-6.509C472.749,390.361,472.679,390.29,472.608,390.221Z" transform="translate(0)" fill="#fff"/>
    <path id="Path_8" data-name="Path 8" d="M469.009,604.142a4.6,4.6,0,0,0-1.1,1.661c-.013.036-.027.071-.04.107l0,.012a9.265,9.265,0,0,1-3.916,4.729,9.666,9.666,0,0,1-13.1-2.954,9.211,9.211,0,0,1-.839-1.655c-.015-.044-.03-.088-.046-.132s-.024-.066-.037-.1a4.685,4.685,0,0,0-2.866-2.728,4.79,4.79,0,0,0-6.065,2.826,4.493,4.493,0,0,0,.011,3.107l0,.007.011.03a18.369,18.369,0,0,0,1.8,3.6,19.329,19.329,0,0,0,26.23,5.8,18.538,18.538,0,0,0,7.7-9.248c.025-.058.048-.118.07-.177.035-.092.067-.185.1-.279a4.541,4.541,0,0,0-1.185-4.579A4.848,4.848,0,0,0,469.009,604.142Z" transform="translate(-3.911 -200.298)" fill="#fff"/>
  </g>
</svg>
