<svg xmlns="http://www.w3.org/2000/svg" xmlns:xlink="http://www.w3.org/1999/xlink" width="82" height="82" viewBox="0 0 82 82">
  <defs>
    <filter id="Ellipse_229" x="0" y="0" width="82" height="82" filterUnits="userSpaceOnUse">
      <feOffset dy="3" input="SourceAlpha"/>
      <feGaussianBlur stdDeviation="3" result="blur"/>
      <feFlood flood-opacity="0.2"/>
      <feComposite operator="in" in2="blur"/>
      <feComposite in="SourceGraphic"/>
    </filter>
  </defs>
  <g id="Group_529" data-name="Group 529" transform="translate(-3516 -1148)">
    <g transform="matrix(1, 0, 0, 1, 3516, 1148)" filter="url(#Ellipse_229)">
      <circle id="Ellipse_229-2" data-name="Ellipse 229" cx="32" cy="32" r="32" transform="translate(9 6)" fill="#002942"/>
    </g>
    <g id="Group_410" data-name="Group 410" transform="translate(200.193 319.117)">
      <path id="Stroke_5736" data-name="Stroke 5736" d="M8.667,0,1.262,4.62A2.723,2.723,0,0,0,0,6.935v3.871H26V6.935A2.723,2.723,0,0,0,24.738,4.62L17.326,0" transform="translate(3343.807 871.076)" fill="none" stroke="#fff" stroke-linecap="round" stroke-linejoin="round" stroke-miterlimit="10" stroke-width="3.5"/>
      <path id="Stroke_5740" data-name="Stroke 5740" d="M7.6,20.255h0a7.862,7.862,0,0,1-7.6-8.1V8.1A7.862,7.862,0,0,1,7.6,0a7.862,7.862,0,0,1,7.6,8.1v4.051a7.862,7.862,0,0,1-7.6,8.1Z" transform="translate(3349.209 851.883)" fill="none" stroke="#fff" stroke-linecap="round" stroke-linejoin="round" stroke-miterlimit="10" stroke-width="3.5"/>
    </g>
  </g>
</svg>
