<svg xmlns="http://www.w3.org/2000/svg" xmlns:xlink="http://www.w3.org/1999/xlink" width="58" height="58" viewBox="0 0 58 58">
  <defs>
    <filter id="Path_1148" x="0" y="0" width="58" height="58" filterUnits="userSpaceOnUse">
      <feOffset dy="3" input="SourceAlpha"/>
      <feGaussianBlur stdDeviation="3" result="blur"/>
      <feFlood flood-opacity="0.2"/>
      <feComposite operator="in" in2="blur"/>
      <feComposite in="SourceGraphic"/>
    </filter>
  </defs>
  <g id="Group_534" data-name="Group 534" transform="translate(-5606 -658)">
    <g transform="matrix(1, 0, 0, 1, 5606, 658)" filter="url(#Path_1148)">
      <path id="Path_1148-2" data-name="Path 1148" d="M20,0A20,20,0,1,1,0,20,20,20,0,0,1,20,0Z" transform="translate(9 6)" fill="#75c7a6"/>
    </g>
    <g id="Group_410" data-name="Group 410" transform="translate(5627 674)">
      <path id="Stroke_5736" data-name="Stroke 5736" d="M5.334,0,.777,3.078A1.856,1.856,0,0,0,0,4.621V7.2H16V4.621a1.856,1.856,0,0,0-.777-1.543L10.662,0" transform="translate(0 11.799)" fill="none" stroke="#fff" stroke-linecap="round" stroke-linejoin="round" stroke-miterlimit="10" stroke-width="2"/>
      <path id="Stroke_5740" data-name="Stroke 5740" d="M4.4,12h0A4.613,4.613,0,0,1,0,7.2V4.8A4.613,4.613,0,0,1,4.4,0,4.613,4.613,0,0,1,8.8,4.8V7.2A4.613,4.613,0,0,1,4.4,12Z" transform="translate(3.599)" fill="none" stroke="#fff" stroke-linecap="round" stroke-linejoin="round" stroke-miterlimit="10" stroke-width="2"/>
    </g>
  </g>
</svg>
