<svg xmlns="http://www.w3.org/2000/svg" xmlns:xlink="http://www.w3.org/1999/xlink" width="68" height="68" viewBox="0 0 68 68">
  <defs>
    <filter id="Ellipse_229" x="0" y="0" width="68" height="68" filterUnits="userSpaceOnUse">
      <feOffset dy="3" input="SourceAlpha"/>
      <feGaussianBlur stdDeviation="3" result="blur"/>
      <feFlood flood-opacity="0.2"/>
      <feComposite operator="in" in2="blur"/>
      <feComposite in="SourceGraphic"/>
    </filter>
  </defs>
  <g id="Group_529" data-name="Group 529" transform="translate(-1742 -69)">
    <g transform="matrix(1, 0, 0, 1, 1742, 69)" filter="url(#Ellipse_229)">
      <g id="Ellipse_229-2" data-name="Ellipse 229" transform="translate(9 6)" fill="#f39b90" stroke="#002942" stroke-width="3">
        <circle cx="25" cy="25" r="25" stroke="none"/>
        <circle cx="25" cy="25" r="23.5" fill="none"/>
      </g>
    </g>
    <g id="Group_410" data-name="Group 410" transform="translate(1766 88)">
      <path id="Stroke_5736" data-name="Stroke 5736" d="M6.831.987.971,3.617A2.142,2.142,0,0,0,0,5.43V8.462H20V5.43a2.142,2.142,0,0,0-.971-1.813L13.492.983" transform="translate(0 14.538)" fill="none" stroke="#002942" stroke-linecap="round" stroke-linejoin="round" stroke-miterlimit="10" stroke-width="3"/>
      <path id="Stroke_5740" data-name="Stroke 5740" d="M5.771,15.859h0A6.077,6.077,0,0,1,0,9.516V6.344A6.077,6.077,0,0,1,5.771,0a6.077,6.077,0,0,1,5.771,6.344V9.516a6.077,6.077,0,0,1-5.771,6.344Z" transform="translate(4.229)" fill="none" stroke="#002942" stroke-linecap="round" stroke-linejoin="round" stroke-miterlimit="10" stroke-width="3"/>
    </g>
  </g>
</svg>
