<svg xmlns="http://www.w3.org/2000/svg" width="216.069" height="71.03" viewBox="0 0 216.069 71.03">
  <path id="Union_1" data-name="Union 1" d="M-3486.755,60.136a21.2,21.2,0,0,1-2-4.1c0-.012-.008-.023-.013-.035l0-.007a5.271,5.271,0,0,1-.012-3.543,5.261,5.261,0,0,1,6.715-3.223,5.263,5.263,0,0,1,3.172,3.111c.014.038.028.076.041.113s.035.1.051.15a10.629,10.629,0,0,0,.929,1.887,10.514,10.514,0,0,0,14.506,3.369,10.505,10.505,0,0,0,4.335-5.393l.005-.014c.014-.04.03-.081.043-.122a5.276,5.276,0,0,1,1.22-1.895,5.255,5.255,0,0,1,7.445.027,5.287,5.287,0,0,1,1.311,5.221c-.031.107-.067.213-.106.319-.024.067-.05.135-.078.2a21.007,21.007,0,0,1-8.529,10.546,20.916,20.916,0,0,1-11.2,3.25A21.027,21.027,0,0,1-3486.755,60.136Zm29.888-18.238h0l-2.242-2.222a20.972,20.972,0,0,1-12.387,2.246l-.264-.034-.154-.023a20.988,20.988,0,0,1-7.271-2.45,21.023,21.023,0,0,1-8.149-28.614A21.074,21.074,0,0,1-3463.5.713c.063.016.125.034.188.052l.233.065a20.989,20.989,0,0,1,12.656,10.11,18.4,18.4,0,0,1,1.956,5.036l.071.365a5.26,5.26,0,0,1-3.963,6.3,5.264,5.264,0,0,1-6.3-3.959h0a10.51,10.51,0,0,0-1.032-2.718,10.531,10.531,0,0,0-1.49-2.074c-.106-.091-.211-.185-.311-.284h0a10.519,10.519,0,0,0-2.32-1.751,10.535,10.535,0,0,0-14.319,4.065l-.009.016q-.109.2-.209.4c-.031.063-.062.125-.092.189s-.067.142-.1.213c-.053.121-.106.241-.155.364a.271.271,0,0,1-.012.028,10.49,10.49,0,0,0,.549,8.944,10.534,10.534,0,0,0,14.293,4.17,10.544,10.544,0,0,0,1.948-1.408,5.321,5.321,0,0,1,7.418.563c.047.053.092.109.137.164l4.942,4.9h0c.079.079.157.16.231.245a5.255,5.255,0,0,1-.476,7.422,5.245,5.245,0,0,1-3.473,1.31A5.254,5.254,0,0,1-3456.867,41.9Zm113.478-7.887a21.056,21.056,0,0,1,3.665-29.552,21.065,21.065,0,0,1,25.013-.652l.014.011c.077.054.155.11.232.166a8.756,8.756,0,0,1,1.744,1.692,8.728,8.728,0,0,1,1.728,3.925,8.786,8.786,0,0,1-1.659,6.764,8.782,8.782,0,0,1-1.6,1.623l-.062.049-2.071,1.613-7.159,5.573a5.264,5.264,0,0,1-7.618-1.239,5.33,5.33,0,0,1,1.232-7.133l2.426-1.888,4.2-3.271a.349.349,0,0,0-.1-.606,10.566,10.566,0,0,0-5-.453,10.485,10.485,0,0,0-5.3,2.443,10.565,10.565,0,0,0-1.663,14.11,10.528,10.528,0,0,0,15.02,2.16l.008-.007.03.038a5.264,5.264,0,0,1,7.449,1,5.342,5.342,0,0,1-.98,7.305l0,0,0,0a20.968,20.968,0,0,1-12.918,4.44A21.02,21.02,0,0,1-3343.388,34.011Zm-76.973,8.1a21.056,21.056,0,0,1-21.019-21.1A21.056,21.056,0,0,1-3420.285,0a21.057,21.057,0,0,1,21.019,21.1,21.055,21.055,0,0,1-21.055,21.019Zm-10.507-21.124a10.528,10.528,0,0,0,10.509,10.548,10.528,10.528,0,0,0,10.548-10.509,10.528,10.528,0,0,0-10.509-10.547h-.02A10.528,10.528,0,0,0-3430.868,20.99Zm133.149,20.855a5.265,5.265,0,0,1-3.6-4.995V28.634q-.012-.566,0-1.129V5.264A5.264,5.264,0,0,1-3296.059,0a5.265,5.265,0,0,1,5.264,5.264v.888a28,28,0,0,1,8.876-4.779l.094-.03v.01a5.263,5.263,0,0,1,6.566,3.4,5.262,5.262,0,0,1-3.178,6.561c-.057.022-.114.042-.173.061l-.03.011c-.074.023-.148.045-.223.066A17.556,17.556,0,0,0-3290.8,27.728q-.007.351,0,.7V36.85a5.265,5.265,0,0,1-5.264,5.264A5.248,5.248,0,0,1-3297.72,41.845Zm-80.358-1.428a7.038,7.038,0,0,1-1.8-2.39l-.834-1.761-12.868-27.686-.662-1.522a5.3,5.3,0,0,1-.3-2.244,5.285,5.285,0,0,1,5.008-4.808,5.262,5.262,0,0,1,4.83,2.683h0l.32.688,10.613,22.763a.294.294,0,0,0,.533,0l10.8-23.214.006,0a5.265,5.265,0,0,1,4.7-2.928,5.3,5.3,0,0,1,5.273,5.024,5.255,5.255,0,0,1-.612,2.714l-13.227,28.527-.807,1.7a7.026,7.026,0,0,1-1.844,2.468,7,7,0,0,1-4.565,1.677A6.987,6.987,0,0,1-3378.078,40.416Z" transform="translate(3490.555 0.53)" fill="#fff" stroke="rgba(0,0,0,0)" stroke-miterlimit="10" stroke-width="1"/>
</svg>
